<svg xmlns="http://www.w3.org/2000/svg" viewBox="0 0 1600 900" role="img" aria-labelledby="title desc">
  <title id="title">Pantry placeholder</title>
  <desc id="desc">Pantry-style organization placeholder image for a home organizing service website.</desc>
  <rect width="1600" height="900" fill="#f4ede4"/>
  <rect x="100" y="80" width="1400" height="740" rx="42" fill="#fffaf4"/>
  <rect x="180" y="180" width="1240" height="40" rx="20" fill="#b58c74"/>
  <rect x="180" y="380" width="1240" height="40" rx="20" fill="#b58c74"/>
  <rect x="180" y="580" width="1240" height="40" rx="20" fill="#b58c74"/>
  <g fill="#b7c0ad">
    <rect x="220" y="230" width="170" height="120" rx="22"/>
    <rect x="430" y="230" width="170" height="120" rx="22"/>
    <rect x="640" y="230" width="170" height="120" rx="22"/>
    <rect x="850" y="230" width="170" height="120" rx="22"/>
    <rect x="1060" y="230" width="170" height="120" rx="22"/>
  </g>
  <g fill="#dcb9ac">
    <rect x="220" y="430" width="120" height="120" rx="22"/>
    <rect x="390" y="430" width="120" height="120" rx="22"/>
    <rect x="560" y="430" width="120" height="120" rx="22"/>
    <rect x="730" y="430" width="120" height="120" rx="22"/>
    <rect x="900" y="430" width="120" height="120" rx="22"/>
    <rect x="1070" y="430" width="120" height="120" rx="22"/>
    <rect x="1240" y="430" width="120" height="120" rx="22"/>
  </g>
  <g fill="#a66d67">
    <rect x="220" y="630" width="260" height="120" rx="22"/>
    <rect x="520" y="630" width="260" height="120" rx="22"/>
    <rect x="820" y="630" width="260" height="120" rx="22"/>
    <rect x="1120" y="630" width="260" height="120" rx="22"/>
  </g>
  <text x="800" y="130" fill="#7d655a" font-family="Arial, sans-serif" font-size="42" text-anchor="middle">Replace with your pantry or room reset photo</text>
</svg>
